<svg xmlns="http://www.w3.org/2000/svg" xmlns:xlink="http://www.w3.org/1999/xlink" version="1.1" x="0px" y="0px" viewBox="0 0 432 432" xml:space="preserve" width="512px" height="512px">
	<g fill="currentColor">
		<path d="M424,384h-24V56c0-13.2-10.8-24-24-24h-64c-13.2,0-24,10.8-24,24v328h-16V168c0-13.2-10.8-24-24-24h-64    c-13.2,0-24,10.8-24,24v216h-16V280c0-13.2-10.8-24-24-24H56c-13.2,0-24,10.8-24,24v104H8c-4.4,0-8,3.6-8,8c0,4.4,3.6,8,8,8h416    c4.4,0,8-3.6,8-8C432,387.6,428.4,384,424,384z M128,384H48V280c0-4.4,3.6-8,8-8h64c4.4,0,8,3.6,8,8V384z M256,384h-80V168    c0-4.4,3.6-8,8-8h64c4.4,0,8,3.6,8,8V384z M384,384h-80V56c0-4.4,3.6-8,8-8h64c4.4,0,8,3.6,8,8V384z"/>
	</g>
</svg>
