<svg xmlns="http://www.w3.org/2000/svg" viewBox="0 0 512 512"><g fill="currentColor"><path d="M438.97 411.72a26.5 26.5 0 00-26.47 26.47 26.5 26.5 0 0026.47 26.48 26.5 26.5 0 0026.48-26.48 26.5 26.5 0 00-26.48-26.47zm0 37.26a10.8 10.8 0 01-10.78-10.79 10.8 10.8 0 0110.78-10.78c5.95 0 10.79 4.84 10.79 10.78s-4.84 10.79-10.79 10.79z"/><path d="M510.3 436.82a69.4 69.4 0 00-23.1-50.2L329.25 244.16 468.9 104.5c.92-.27 1.82-.62 2.7-1.08l30.24-15.96a14.59 14.59 0 007.68-10.82c.71-4.67-.8-9.27-4.14-12.62l-34.05-34.05a14.58 14.58 0 00-12.61-4.14c-4.68.7-8.62 3.5-10.83 7.68l-15.96 30.25c-.47.88-.82 1.8-1.1 2.72l-65.92 65.92a7.85 7.85 0 0011.1 11.1L436.5 83l15.85 15.85-154.7 154.7-15.85-15.85 67.52-67.52a7.85 7.85 0 00-11.1-11.1l-48.99 49-53.32-48.1A120.38 120.38 0 00207.3 35.26 120.64 120.64 0 0078.92 7.99a7.84 7.84 0 00-2.74 12.87l61.59 61.6a9.59 9.59 0 012.83 6.82c0 2.57-1 5-2.83 6.82l-40 40a9.58 9.58 0 01-6.82 2.82c-2.58 0-5-1-6.82-2.82l-61.6-61.6a7.85 7.85 0 00-12.87 2.74 120.64 120.64 0 0027.27 128.38 120.82 120.82 0 00122.3 29.42l41.23 45.08a42.28 42.28 0 01-7.74 10.66 42.46 42.46 0 01-45.38 9.54 7.84 7.84 0 00-8.39 1.76L42.9 398.14c-26 26-26 68.32 0 94.32A66.25 66.25 0 0090.06 512a66.26 66.26 0 0047.16-19.53l96.06-96.06a7.85 7.85 0 001.76-8.39 42.47 42.47 0 019.54-45.38 42.47 42.47 0 0145.38-9.54 7.84 7.84 0 008.4-1.77l18.11-18.12a28.7 28.7 0 008.46-20.42c0-7.72-3-14.97-8.46-20.43l-7.71-7.71 9.38-9.38 158.55 143a53.85 53.85 0 0117.93 38.95 53.84 53.84 0 01-15.9 39.83 53.95 53.95 0 01-39.64 15.9 53.86 53.86 0 01-38.88-17.66L282.3 346.38a7.84 7.84 0 10-11.58 10.59l117.89 128.91a69.42 69.42 0 0051.73 22.77 69.4 69.4 0 0049.47-20.51 69.4 69.4 0 0020.48-51.32zM446.15 70.45L461.17 42l32.2 32.2L464.9 89.2l-18.76-18.76zM167.32 220.64a7.85 7.85 0 00-8.53-2.06 105.08 105.08 0 01-110.77-24.05 104.94 104.94 0 01-27.47-99.81l52.48 52.47c4.79 4.79 11.15 7.42 17.92 7.42s13.13-2.63 17.92-7.42l40-40c4.78-4.78 7.42-11.15 7.42-17.91s-2.64-13.13-7.43-17.92L96.4 18.88a104.93 104.93 0 0199.81 27.47 104.72 104.72 0 0123.22 112.98 7.84 7.84 0 002.04 8.73l56.68 51.12-7.43 7.43-7.71-7.72a28.7 28.7 0 00-20.43-8.46c-7.71 0-14.97 3-20.42 8.46l-18.12 18.12a7.85 7.85 0 00-1.77 8.4c2.09 5.37 3 10.99 2.84 16.54l-37.78-41.31zm138.05 81.48L290.7 316.8a58.17 58.17 0 00-57.2 14.74 58.16 58.16 0 00-14.74 57.2l-92.63 92.63c-9.63 9.63-22.44 14.94-36.06 14.94s-26.43-5.3-36.07-14.94a51.06 51.06 0 010-72.13l92.63-92.62c20.19 5.82 42.16.3 57.2-14.74a58.16 58.16 0 0014.74-57.21l14.68-14.68a13.2 13.2 0 0118.66 0l13.27 13.26 26.94 26.95 13.26 13.26a13.2 13.2 0 010 18.66z"/><path d="M162.33 346.25a7.85 7.85 0 00-11.1 0l-74.32 74.32a7.85 7.85 0 0011.1 11.1l74.32-74.33a7.85 7.85 0 000-11.1zM189.78 373.7a7.85 7.85 0 00-11.1 0l-74.3 74.33a7.85 7.85 0 0011.09 11.1l74.31-74.33a7.85 7.85 0 000-11.1z"/></g></svg>
