<svg viewBox="0 0 142 136" version="1.1" xmlns="http://www.w3.org/2000/svg" xmlns:xlink="http://www.w3.org/1999/xlink" xml:space="preserve" x="0px" y="0px" width="142px" height="136px">
	<g fill="#FFFFFF">
		<path d="M 111.078 8.52 C 111.078 13.038 107.418 16.698 102.904 16.698 C 98.383 16.698 94.719 13.038 94.719 8.52 C 94.719 4 98.383 0.338 102.904 0.338 C 107.418 0.338 111.078 4 111.078 8.52 L 111.078 8.52 Z"/>
		<path d="M 98.256 30.088 C 98.256 26.2612 101.3582 23.159 105.185 23.159 C 109.0118 23.159 112.114 26.2612 112.114 30.088 C 112.114 33.9148 109.0118 37.017 105.185 37.017 C 101.3582 37.017 98.256 33.9148 98.256 30.088 Z"/>
		<path d="M 97.179 48.25 C 97.179 45.0152 99.8013 42.393 103.036 42.393 C 106.2708 42.393 108.893 45.0152 108.893 48.25 C 108.893 51.4848 106.2708 54.107 103.036 54.107 C 99.8013 54.107 97.179 51.4848 97.179 48.25 Z"/>
		<path d="M 102.691 62.949 C 102.691 65.711 100.448 67.955 97.687 67.955 C 94.922 67.955 92.679 65.711 92.679 62.949 C 92.679 60.188 94.922 57.945 97.687 57.945 C 100.448 57.945 102.691 60.188 102.691 62.949 L 102.691 62.949 Z"/>
		<path d="M 94.767 74.056 C 94.767 76.431 92.845 78.353 90.474 78.353 C 88.097 78.353 86.171 76.431 86.171 74.056 C 86.171 71.682 88.097 69.754 90.474 69.754 C 92.845 69.754 94.767 71.682 94.767 74.056 L 94.767 74.056 Z"/>
		<path d="M 86.1 81.932 C 86.1 83.975 84.448 85.626 82.407 85.626 C 80.369 85.626 78.72 83.975 78.72 81.932 C 78.72 79.894 80.368 78.243 82.407 78.243 C 84.447 78.242 86.1 79.894 86.1 81.932 L 86.1 81.932 Z"/>
		<path d="M 130.229 34.206 C 129.355 37.946 125.613 40.269 121.871 39.396 C 118.133 38.52 115.81 34.78 116.688 31.04 C 117.565 27.3 121.304 24.98 125.042 25.855 C 128.783 26.732 131.103 30.47 130.229 34.206 L 130.229 34.206 Z"/>
		<path d="M 126.905 52.262 C 126.162 55.428 122.996 57.395 119.824 56.649 C 116.661 55.911 114.696 52.74 115.439 49.576 C 116.178 46.411 119.349 44.442 122.509 45.186 C 125.679 45.93 127.646 49.096 126.905 52.262 L 126.905 52.262 Z"/>
		<path d="M 120.72 66.672 C 120.095 69.347 117.416 71.009 114.737 70.381 C 112.063 69.754 110.4 67.08 111.026 64.4 C 111.649 61.723 114.333 60.063 117.009 60.688 C 119.685 61.313 121.351 63.992 120.72 66.672 L 120.72 66.672 Z"/>
		<path d="M 112.743 77.637 C 112.203 79.928 109.92 81.343 107.63 80.809 C 105.343 80.27 103.921 77.985 104.459 75.698 C 104.989 73.411 107.279 71.987 109.568 72.526 C 111.855 73.061 113.276 75.351 112.743 77.637 L 112.743 77.637 Z"/>
		<path d="M 104.031 85.292 C 103.57 87.254 101.608 88.479 99.643 88.015 C 97.679 87.557 96.46 85.59 96.918 83.622 C 97.376 81.662 99.344 80.438 101.309 80.902 C 103.276 81.361 104.491 83.324 104.031 85.292 L 104.031 85.292 Z"/>
		<path d="M 95.333 90.133 C 94.937 91.821 93.247 92.865 91.562 92.473 C 89.874 92.075 88.826 90.389 89.22 88.7 C 89.616 87.014 91.304 85.966 92.988 86.358 C 94.678 86.756 95.726 88.443 95.333 90.133 L 95.333 90.133 Z"/>
		<path d="M 140.939 58.848 C 139.515 61.793 135.972 63.023 133.031 61.598 C 130.086 60.174 128.856 56.632 130.283 53.686 C 131.704 50.747 135.241 49.514 138.188 50.936 C 141.13 52.363 142.365 55.905 140.939 58.848 L 140.939 58.848 Z"/>
		<path d="M 134.77 73.117 C 133.553 75.625 130.549 76.671 128.042 75.457 C 125.534 74.248 124.491 71.234 125.697 68.729 C 126.914 66.225 129.924 65.181 132.428 66.386 C 134.937 67.602 135.985 70.615 134.77 73.117 L 134.77 73.117 Z"/>
		<path d="M 127.014 83.947 C 125.968 86.112 123.363 87.013 121.198 85.967 C 119.037 84.922 118.132 82.322 119.18 80.154 C 120.226 77.992 122.831 77.084 124.992 78.135 C 127.159 79.182 128.062 81.784 127.014 83.947 L 127.014 83.947 Z"/>
		<path d="M 118.377 91.594 C 117.466 93.473 115.211 94.254 113.331 93.35 C 111.452 92.442 110.666 90.176 111.572 88.297 C 112.485 86.42 114.745 85.635 116.619 86.541 C 118.498 87.451 119.286 89.713 118.377 91.594 L 118.377 91.594 Z"/>
		<path d="M 109.676 96.311 C 108.902 97.916 106.973 98.586 105.367 97.809 C 103.762 97.036 103.09 95.101 103.867 93.498 C 104.644 91.896 106.572 91.223 108.178 92 C 109.786 92.775 110.453 94.702 109.676 96.311 L 109.676 96.311 Z"/>
		<path d="M 101.504 98.686 C 100.845 100.051 99.203 100.623 97.84 99.963 C 96.481 99.305 95.907 97.665 96.566 96.303 C 97.225 94.941 98.867 94.369 100.229 95.028 C 101.591 95.688 102.163 97.329 101.504 98.686 L 101.504 98.686 Z"/>
		<path d="M 108.155 129.969 C 104.24 127.721 102.894 122.714 105.15 118.801 C 107.409 114.889 112.404 113.543 116.322 115.799 C 120.234 118.055 121.586 123.056 119.33 126.968 C 117.071 130.883 112.07 132.229 108.155 129.969 L 108.155 129.969 Z"/>
		<path d="M 88.955 120.099 C 85.642 118.192 84.494 113.959 86.411 110.641 C 88.319 107.328 92.551 106.188 95.873 108.096 C 99.184 110.004 100.322 114.244 98.411 117.557 C 96.503 120.873 92.27 122.013 88.955 120.099 L 88.955 120.099 Z"/>
		<path d="M 74.821 108.246 C 72.016 106.626 71.052 103.05 72.668 100.242 C 74.285 97.441 77.866 96.477 80.668 98.092 C 83.469 99.709 84.438 103.287 82.819 106.088 C 81.207 108.898 77.627 109.857 74.821 108.246 L 74.821 108.246 Z"/>
		<path d="M 65.179 95.531 C 62.787 94.148 61.963 91.09 63.342 88.692 C 64.725 86.3 67.78 85.475 70.18 86.857 C 72.572 88.238 73.395 91.296 72.012 93.693 C 70.635 96.087 67.574 96.91 65.179 95.531 L 65.179 95.531 Z"/>
		<path d="M 59.515 83.125 C 57.457 81.937 56.75 79.311 57.935 77.252 C 59.122 75.192 61.753 74.491 63.809 75.676 C 65.86 76.86 66.569 79.489 65.386 81.541 C 64.201 83.604 61.569 84.309 59.515 83.125 L 59.515 83.125 Z"/>
		<path d="M 57.016 71.676 C 55.251 70.66 54.642 68.405 55.662 66.635 C 56.68 64.869 58.935 64.265 60.702 65.281 C 62.465 66.299 63.073 68.556 62.056 70.324 C 61.038 72.086 58.78 72.693 57.016 71.676 L 57.016 71.676 Z"/>
		<path d="M 74.135 128.665 C 74.135 124.8244 77.2484 121.711 81.089 121.711 C 84.9297 121.711 88.043 124.8244 88.043 128.665 C 88.043 132.5056 84.9297 135.619 81.089 135.619 C 77.2484 135.619 74.135 132.5056 74.135 128.665 Z"/>
		<path d="M 62.355 121.848 C 59.981 119.621 59.86 115.898 62.082 113.524 C 64.307 111.149 68.032 111.031 70.406 113.25 C 72.778 115.478 72.901 119.2 70.679 121.575 C 68.456 123.949 64.733 124.067 62.355 121.848 L 62.355 121.848 Z"/>
		<path d="M 52.953 109.298 C 50.948 107.414 50.845 104.263 52.724 102.256 C 54.607 100.248 57.756 100.145 59.763 102.027 C 61.772 103.906 61.874 107.058 59.992 109.065 C 58.115 111.072 54.963 111.174 52.953 109.298 L 52.953 109.298 Z"/>
		<path d="M 47.439 96.904 C 45.722 95.302 45.635 92.608 47.241 90.892 C 48.852 89.179 51.537 89.087 53.253 90.693 C 54.97 92.302 55.057 94.993 53.452 96.71 C 51.846 98.423 49.155 98.514 47.439 96.904 L 47.439 96.904 Z"/>
		<path d="M 45.15 85.541 C 43.678 84.162 43.605 81.85 44.981 80.377 C 46.361 78.901 48.673 78.825 50.149 80.203 C 51.625 81.584 51.696 83.896 50.318 85.371 C 48.937 86.845 46.628 86.921 45.15 85.541 L 45.15 85.541 Z"/>
		<path d="M 45.303 75.58 C 44.037 74.398 43.971 72.411 45.157 71.146 C 46.342 69.88 48.328 69.815 49.594 71.003 C 50.857 72.187 50.925 74.171 49.737 75.437 C 48.553 76.702 46.565 76.77 45.303 75.58 L 45.303 75.58 Z"/>
		<path d="M 49.638 130.722 C 47.806 128.017 48.501 124.332 51.206 122.496 C 53.912 120.652 57.595 121.355 59.433 124.059 C 61.272 126.762 60.573 130.446 57.868 132.282 C 55.162 134.125 51.484 133.424 49.638 130.722 L 49.638 130.722 Z"/>
		<path d="M 40.353 118.25 C 38.786 115.948 39.385 112.814 41.686 111.25 C 43.984 109.687 47.12 110.281 48.685 112.578 C 50.251 114.88 49.653 118.016 47.354 119.579 C 45.05 121.145 41.921 120.551 40.353 118.25 L 40.353 118.25 Z"/>
		<path d="M 34.844 106.119 C 33.491 104.133 34.008 101.428 35.993 100.076 C 37.982 98.722 40.691 99.236 42.04 101.227 C 43.396 103.216 42.879 105.922 40.893 107.276 C 38.903 108.621 36.193 108.113 34.844 106.119 L 34.844 106.119 Z"/>
		<path d="M 32.533 94.824 C 31.362 93.097 31.806 90.75 33.53 89.574 C 35.258 88.399 37.604 88.845 38.78 90.572 C 39.957 92.297 39.51 94.652 37.779 95.822 C 36.055 96.998 33.709 96.546 32.533 94.824 L 32.533 94.824 Z"/>
		<path d="M 32.787 84.93 C 31.784 83.455 32.162 81.449 33.641 80.444 C 35.114 79.442 37.121 79.827 38.124 81.296 C 39.13 82.775 38.749 84.788 37.27 85.782 C 35.795 86.788 33.79 86.406 32.787 84.93 L 32.787 84.93 Z"/>
		<path d="M 34.808 76.66 C 33.958 75.404 34.284 73.703 35.529 72.846 C 36.783 71.998 38.49 72.323 39.341 73.576 C 40.193 74.825 39.869 76.535 38.618 77.383 C 37.358 78.236 35.657 77.912 34.808 76.66 L 34.808 76.66 Z"/>
		<path d="M 4.378 66.729 C 8.291 64.472 13.291 65.815 15.549 69.728 C 17.809 73.64 16.46 78.643 12.551 80.902 C 8.635 83.156 3.638 81.812 1.383 77.906 C -0.88 73.988 0.47 68.984 4.378 66.729 L 4.378 66.729 Z"/>
		<path d="M 22.546 55.065 C 25.856 53.149 30.098 54.285 32.008 57.601 C 33.916 60.916 32.782 65.15 29.467 67.062 C 26.154 68.97 21.916 67.833 20.006 64.526 C 18.094 61.208 19.235 56.973 22.546 55.065 L 22.546 55.065 Z"/>
		<path d="M 39.886 48.773 C 42.687 47.159 46.274 48.12 47.888 50.919 C 49.504 53.726 48.541 57.31 45.743 58.926 C 42.935 60.539 39.36 59.576 37.74 56.774 C 36.124 53.975 37.087 50.391 39.886 48.773 L 39.886 48.773 Z"/>
		<path d="M 55.722 46.803 C 58.116 45.421 61.174 46.243 62.554 48.638 C 63.939 51.035 63.114 54.091 60.725 55.473 C 58.328 56.856 55.267 56.036 53.884 53.635 C 52.504 51.244 53.326 48.186 55.722 46.803 L 55.722 46.803 Z"/>
		<path d="M 69.295 48.117 C 71.357 46.932 73.979 47.637 75.166 49.695 C 76.354 51.749 75.646 54.381 73.592 55.563 C 71.537 56.753 68.906 56.048 67.724 53.99 C 66.534 51.933 67.24 49.305 69.295 48.117 L 69.295 48.117 Z"/>
		<path d="M 80.453 51.69 C 82.221 50.675 84.478 51.28 85.495 53.044 C 86.516 54.811 85.909 57.068 84.142 58.086 C 82.376 59.101 80.121 58.502 79.101 56.734 C 78.084 54.967 78.691 52.711 80.453 51.69 L 80.453 51.69 Z"/>
		<path d="M 17.067 37.307 C 20.742 36.2 24.623 38.281 25.731 41.957 C 26.842 45.633 24.76 49.514 21.085 50.621 C 17.413 51.729 13.531 49.649 12.423 45.975 C 11.31 42.297 13.39 38.418 17.067 37.307 L 17.067 37.307 Z"/>
		<path d="M 34.365 31.17 C 37.479 30.23 40.759 31.994 41.703 35.104 C 42.643 38.219 40.878 41.505 37.768 42.448 C 34.653 43.384 31.371 41.622 30.426 38.51 C 29.49 35.399 31.249 32.109 34.365 31.17 L 34.365 31.17 Z"/>
		<path d="M 49.938 29.327 C 52.566 28.527 55.347 30.017 56.141 32.651 C 56.936 35.287 55.448 38.062 52.811 38.859 C 50.183 39.654 47.4 38.164 46.607 35.535 C 45.809 32.9 47.303 30.123 49.938 29.327 L 49.938 29.327 Z"/>
		<path d="M 63.428 30.764 C 65.672 30.085 68.043 31.354 68.727 33.608 C 69.404 35.856 68.132 38.23 65.883 38.911 C 63.633 39.587 61.255 38.314 60.581 36.065 C 59.902 33.813 61.174 31.439 63.428 30.764 L 63.428 30.764 Z"/>
		<path d="M 74.406 34.48 C 76.335 33.898 78.372 34.986 78.96 36.919 C 79.542 38.854 78.446 40.892 76.515 41.476 C 74.581 42.06 72.546 40.964 71.961 39.031 C 71.376 37.104 72.47 35.063 74.406 34.48 L 74.406 34.48 Z"/>
		<path d="M 82.943 39.603 C 84.608 39.098 86.351 40.04 86.855 41.696 C 87.355 43.36 86.417 45.107 84.757 45.608 C 83.097 46.108 81.351 45.169 80.848 43.51 C 80.349 41.848 81.287 40.098 82.943 39.603 L 82.943 39.603 Z"/>
		<path d="M 33.059 15.723 C 36.32 15.486 39.159 17.933 39.395 21.198 C 39.629 24.458 37.175 27.294 33.916 27.534 C 30.656 27.771 27.817 25.317 27.583 22.058 C 27.35 18.792 29.8 15.956 33.059 15.723 L 33.059 15.723 Z"/>
		<path d="M 48.507 13.933 C 51.28 13.733 53.697 15.819 53.896 18.592 C 54.096 21.371 52.013 23.781 49.231 23.982 C 46.459 24.187 44.046 22.096 43.847 19.327 C 43.643 16.548 45.73 14.137 48.507 13.933 L 48.507 13.933 Z"/>
		<path d="M 61.76 15.244 C 64.156 15.07 66.243 16.873 66.415 19.272 C 66.588 21.669 64.787 23.751 62.391 23.928 C 59.991 24.097 57.908 22.296 57.731 19.9 C 57.558 17.498 59.359 15.417 61.76 15.244 L 61.76 15.244 Z"/>
		<path d="M 72.696 18.906 C 74.776 18.755 76.586 20.321 76.738 22.402 C 76.887 24.484 75.322 26.294 73.242 26.444 C 71.158 26.596 69.349 25.031 69.199 22.953 C 69.047 20.867 70.613 19.061 72.696 18.906 L 72.696 18.906 Z"/>
		<path d="M 81.128 24.081 C 82.908 23.954 84.456 25.287 84.585 27.069 C 84.713 28.847 83.376 30.392 81.598 30.523 C 79.818 30.652 78.27 29.316 78.144 27.537 C 78.013 25.758 79.35 24.214 81.128 24.081 L 81.128 24.081 Z"/>
		<path d="M 87.271 29.978 C 88.783 29.874 90.097 31.004 90.205 32.514 C 90.312 34.023 89.179 35.338 87.67 35.448 C 86.163 35.558 84.849 34.42 84.738 32.91 C 84.629 31.402 85.764 30.09 87.271 29.978 L 87.271 29.978 Z"/>
	</g>
</svg>
