<svg xmlns="http://www.w3.org/2000/svg" xmlns:xlink="http://www.w3.org/1999/xlink" version="1.1" id="Capa_1" x="0px" y="0px" viewBox="0 0 18 18" style="enable-background:new 0 0 18 18;" xml:space="preserve" width="512px" height="512px">
	<g>
		<path d="M13.5,4h-2.086l1.293-1.293c0.391-0.391,0.391-1.023,0-1.414s-1.023-0.391-1.414,0L7.586,5   l3.707,3.707C11.488,8.902,11.744,9,12,9s0.512-0.098,0.707-0.293c0.391-0.391,0.391-1.023,0-1.414L11.414,6H13.5   C14.879,6,16,7.346,16,9s-1.346,3-3,3l0,0c-0.553,0-1,0.448-1,1s0.447,1,1,1l0,0c2.757,0,5-2.243,5-5S15.981,4,13.5,4z" fill="#11aed1"/>
		<path d="M5.293,9.293c-0.391,0.391-0.391,1.023,0,1.414L6.586,12H4.5C3.121,12,2,10.654,2,9s1.346-3,3-3l0,0   c0.553,0,1-0.448,1-1S5.553,4,5,4l0,0C2.243,4,0,6.243,0,9s2.019,5,4.5,5h2.086l-1.293,1.293c-0.391,0.391-0.391,1.023,0,1.414   C5.488,16.902,5.744,17,6,17s0.512-0.098,0.707-0.293L10.414,13L6.707,9.293C6.316,8.902,5.684,8.902,5.293,9.293z" fill="#11aed1"/>
	</g>
</svg>
